<svg xmlns="http://www.w3.org/2000/svg" viewBox="0 0 24 24" fill="none" stroke="#00f3ff" stroke-width="1.5" stroke-linecap="round" stroke-linejoin="round">
  <defs>
    <filter id="glow">
      <feGaussianBlur stdDeviation="0.8" result="blur"/>
      <feMerge><feMergeNode in="blur"/><feMergeNode in="SourceGraphic"/></feMerge>
    </filter>
  </defs>
  <g filter="url(#glow)">
    <path d="M20.5 4.5c-1.5-.7-3.1-1.2-4.8-1.5-.2.4-.4.8-.5 1.2-1.8-.3-3.6-.3-5.4 0-.1-.4-.3-.8-.5-1.2-1.7.3-3.3.8-4.8 1.5C1.3 9.5.8 14.3 1.5 19c1.8 1.3 3.6 2.1 5.3 2.5.4-.6.8-1.2 1.1-1.8-.6-.2-1.2-.5-1.8-.9.2-.1.3-.2.5-.3 3.4 1.6 7.1 1.6 10.4 0 .2.1.3.2.5.3-.6.4-1.2.7-1.8.9.3.6.7 1.2 1.1 1.8 1.7-.4 3.5-1.2 5.3-2.5.7-5.4-.4-10.1-2-14.5zM8.5 15.5c-1 0-1.8-.9-1.8-2s.8-2 1.8-2 1.8.9 1.8 2-.8 2-1.8 2zm7 0c-1 0-1.8-.9-1.8-2s.8-2 1.8-2 1.8.9 1.8 2-.8 2-1.8 2z"/>
  </g>
</svg>
